<svg id="Capa_1" data-name="Capa 1" xmlns="http://www.w3.org/2000/svg" viewBox="0 0 103.89 34">
  <defs>
    <style>
      .cls-1 {
        fill: #888;
      }
    </style>
  </defs>
  <path class="cls-1" d="M33.88.06a3.81,3.81,0,0,1,1.53.32,4.16,4.16,0,0,1,2.12,2.13,3.94,3.94,0,0,1,.31,1.55,3.89,3.89,0,0,1-.31,1.54,4,4,0,0,1-.85,1.26,3.92,3.92,0,0,1-1.29.87,4,4,0,0,1-1.53.3,4.15,4.15,0,0,1-1.55-.3,3.79,3.79,0,0,1-1.26-.83,3.95,3.95,0,0,1-1.16-2.85A3.83,3.83,0,0,1,31,1.26,4.19,4.19,0,0,1,32.31.4,4.33,4.33,0,0,1,33.89,0Zm0,1.61a2.22,2.22,0,0,0-.91.19,2.23,2.23,0,0,0-.76.5,2.62,2.62,0,0,0-.51.75A2.45,2.45,0,0,0,31.5,4a2.4,2.4,0,0,0,.19.92,3,3,0,0,0,.51.77,2.42,2.42,0,0,0,.76.51,2.3,2.3,0,0,0,1.83,0,2.42,2.42,0,0,0,.76-.51,2.75,2.75,0,0,0,.5-.77A2.23,2.23,0,0,0,36.24,4a2.39,2.39,0,0,0-.71-1.65,2.44,2.44,0,0,0-1.65-.71Z" transform="translate(0 0)"/>
  <path class="cls-1" d="M12,4.6a1.84,1.84,0,0,1-1.24,1.72,1.86,1.86,0,0,1-1.12,0,1.89,1.89,0,0,1-.92-.63,1.58,1.58,0,0,1-.24-.39s0-.09-.05-.14l0-.07v0a1.51,1.51,0,0,1-.07-.48V.88A.71.71,0,0,0,8.26.56.68.68,0,0,0,8.08.3.86.86,0,0,0,7.5,0a.89.89,0,0,0-.59.26.68.68,0,0,0-.18.26.81.81,0,0,0-.06.31v3.6A3.39,3.39,0,0,0,7,6l0,.08.12.24.07.12.09.13a3.64,3.64,0,0,0,.88.87l0,0a3.73,3.73,0,0,0,.83.4A4.57,4.57,0,0,0,9.92,8h.29a1.51,1.51,0,0,0,.3,0l.32,0h0a4.11,4.11,0,0,0,.68-.21,3.47,3.47,0,0,0,1-.6,4.12,4.12,0,0,0,.68-.82v0a1.14,1.14,0,0,0,.1-.19c0-.06.06-.09.08-.14a3.67,3.67,0,0,0,.34-1.53V.86a.81.81,0,0,0-.06-.31.68.68,0,0,0-.18-.26.89.89,0,0,0-.6-.26.83.83,0,0,0-.57.27.7.7,0,0,0-.19.26A.87.87,0,0,0,12,.88V4.33" transform="translate(0 0)"/>
  <path class="cls-1" d="M23.19,7.07V2.73A2.42,2.42,0,0,0,20.56,0a2.23,2.23,0,0,0-1.72.81l-.22.32L18.43.82A2,2,0,0,0,16.78,0a2.43,2.43,0,0,0-2.63,2.7V7.11a.87.87,0,0,0,.21.62.81.81,0,0,0,.58.3H15a.91.91,0,0,0,.62-.26.85.85,0,0,0,.24-.62V2.54a.81.81,0,0,1,.08-.34.81.81,0,0,1,.19-.29,1,1,0,0,1,.3-.2,1,1,0,0,1,.35-.06h0a1,1,0,0,1,1,.89V7.11a.78.78,0,0,0,0,.34,1.11,1.11,0,0,0,.17.3,1,1,0,0,0,.61.29A1,1,0,0,0,19,8a.92.92,0,0,0,.3-.18.9.9,0,0,0,.21-.27.81.81,0,0,0,.08-.34V2.57a.93.93,0,0,1,.29-.65,1,1,0,0,1,.67-.26,1,1,0,0,1,.66.25.93.93,0,0,1,.29.65V7.12a.87.87,0,0,0,.23.64.9.9,0,0,0,.61.29h0a.85.85,0,0,0,.84-.87V7.12Z" transform="translate(0 0)"/>
  <path class="cls-1" d="M25.46,4.7h1.77a1,1,0,0,1,.34.07,1,1,0,0,1,.3.19,1.37,1.37,0,0,1,.2.29.84.84,0,0,1,.07.35.8.8,0,0,1-.07.34.85.85,0,0,1-.48.48.83.83,0,0,1-.34.07H25.47ZM27,1.58a.91.91,0,0,1,.86.9.9.9,0,0,1-.25.62.93.93,0,0,1-.61.27H25.46V1.58Zm2.8,4.3a2.19,2.19,0,0,0-.42-1.23,2.1,2.1,0,0,0-1-.77h0a2,2,0,0,0,.89-.72,2,2,0,0,0,.32-1.1,2.09,2.09,0,0,0-2.2-2H24.61A.88.88,0,0,0,24,.3a.92.92,0,0,0-.25.58V7.23a.83.83,0,0,0,.25.58.86.86,0,0,0,.57.25h3A2.09,2.09,0,0,0,28.16,8a2.24,2.24,0,0,0,1.17-.76A2.2,2.2,0,0,0,29.8,5.9" transform="translate(0 0)"/>
  <path class="cls-1" d="M6.16,5.13V1.25a2.33,2.33,0,0,0,0-.53A1,1,0,0,0,5.78.19,1,1,0,0,0,5.17,0H2.48A.87.87,0,0,0,2,.16a.87.87,0,0,0-.3.43.84.84,0,0,0,0,.52A.83.83,0,0,0,2,1.52a1.36,1.36,0,0,0,.74.13H4.51V5.1h0a1.43,1.43,0,0,1-.4,1,1.32,1.32,0,0,1-.46.32,1.33,1.33,0,0,1-.55.12,1.4,1.4,0,0,1-1-.41,1.44,1.44,0,0,1-.44-1V5.09a.77.77,0,0,0-.25-.57A.81.81,0,0,0,.8,4.29a.83.83,0,0,0-.57.25A.86.86,0,0,0,0,5.13v.13A2.94,2.94,0,0,0,3.14,8a3,3,0,0,0,3-2.92" transform="translate(0 0)"/>
  <path class="cls-1" d="M20.14,18.93a10.93,10.93,0,0,1-2.17,7,7.41,7.41,0,0,1-6.11,2.74A5.43,5.43,0,0,1,7,26.42V34H.51V9.78H7V11.5a5.37,5.37,0,0,1,4.84-2.28A7.39,7.39,0,0,1,18,12a10.82,10.82,0,0,1,2.19,7Zm-7.06-2.68a3.58,3.58,0,0,0-1.14-.75,3.47,3.47,0,0,0-1.35-.24A3.46,3.46,0,0,0,7,19a3.55,3.55,0,0,0,2.2,3.43,3.37,3.37,0,0,0,1.37.25,3.39,3.39,0,0,0,2.49-1,3.73,3.73,0,0,0,.79-1.21A3.82,3.82,0,0,0,14.11,19a3.57,3.57,0,0,0-1-2.7" transform="translate(0 0)"/>
  <path class="cls-1" d="M36,15.33a13.37,13.37,0,0,0-3.55.52,7.93,7.93,0,0,0-2.87,1.37v11h-6.5V9.78h4.88l.41,1.29A14.07,14.07,0,0,1,36,9.22Z" transform="translate(0 0)"/>
  <path class="cls-1" d="M45,9.78h-6.5v18.4H45Z" transform="translate(0 0)"/>
  <path class="cls-1" d="M61.08,28.18V18.66q0-3.37-2.9-3.4a3.55,3.55,0,0,0-3.08,1.91v11H48.92V9.76h6.17v1.3a6.37,6.37,0,0,1,4.5-1.85,8.08,8.08,0,0,1,6.46,2.69,8,8,0,0,1,6-2.69c5.39,0,8,3.52,8,9.65v9.31h-6.5v-9.3c0-2.53-1-3.61-2.91-3.61a3.55,3.55,0,0,0-3.08,1.91v11Z" transform="translate(0 0)"/>
  <path class="cls-1" d="M101.74,13.31l-.89-.77a.2.2,0,0,0-.11,0,.17.17,0,0,0-.1,0l-1,.79a.14.14,0,0,1-.12,0,.14.14,0,0,1-.11-.06.15.15,0,0,1,0-.11V10.5a.18.18,0,0,1,0-.12.16.16,0,0,1,.11-.05h2.32l.07,0a.09.09,0,0,1,0,0l0,.06a.13.13,0,0,1,0,.06v2.68a.16.16,0,0,1,0,.12.1.1,0,0,1,0,0h-.07A.21.21,0,0,1,101.74,13.31Z" transform="translate(0 0)"/>
  <path class="cls-1" d="M103.89,11.83a3.14,3.14,0,0,0-6-1.31,10.12,10.12,0,0,0-2-.94,9.85,9.85,0,1,0,4.41,15.61l-3.47-3.62A4.65,4.65,0,0,1,95,23.19a4.73,4.73,0,0,1-4.76-.39,4.7,4.7,0,0,1-1.58-1.9h13.75a10,10,0,0,0-.7-6.09A3.14,3.14,0,0,0,103.89,11.83ZM88.68,16.92a4.7,4.7,0,0,1,1.74-2,4.77,4.77,0,0,1,5.07,0,4.79,4.79,0,0,1,1.75,2Zm12.06-2.69a2.4,2.4,0,1,1,2.4-2.4A2.4,2.4,0,0,1,100.74,14.23Z" transform="translate(0 0)"/>
</svg>
